<svg width="19" height="14" viewBox="0 0 19 14" fill="none" xmlns="http://www.w3.org/2000/svg">
  <path fill-rule="evenodd" clip-rule="evenodd" d="M0.5 7C0.5 6.44772 0.947715 6 1.5 6H17.5C18.0523 6 18.5 6.44772 18.5 7C18.5 7.55228 18.0523 8 17.5 8H1.5C0.947715 8 0.5 7.55228 0.5 7Z" fill="white"/>
  <path fill-rule="evenodd" clip-rule="evenodd" d="M8.20711 0.292893C8.59763 0.683417 8.59763 1.31658 8.20711 1.70711L2.91421 7L8.20711 12.2929C8.59763 12.6834 8.59763 13.3166 8.20711 13.7071C7.81658 14.0976 7.18342 14.0976 6.79289 13.7071L0.792893 7.70711C0.402369 7.31658 0.402369 6.68342 0.792893 6.29289L6.79289 0.292893C7.18342 -0.0976311 7.81658 -0.0976311 8.20711 0.292893Z" fill="white"/>
</svg>
