<svg width="16" height="12" viewBox="0 0 16 12" xmlns="http://www.w3.org/2000/svg">
  <path fill-rule="evenodd" clip-rule="evenodd" d="M0.5 6.00008C0.5 5.53984 0.873096 5.16675 1.33333 5.16675H14.6667C15.1269 5.16675 15.5 5.53984 15.5 6.00008C15.5 6.46032 15.1269 6.83342 14.6667 6.83342H1.33333C0.873096 6.83342 0.5 6.46032 0.5 6.00008Z" fill="white"/>
  <path fill-rule="evenodd" clip-rule="evenodd" d="M6.92259 0.410826C7.24803 0.736263 7.24803 1.2639 6.92259 1.58934L2.51184 6.00008L6.92259 10.4108C7.24803 10.7363 7.24803 11.2639 6.92259 11.5893C6.59715 11.9148 6.06951 11.9148 5.74408 11.5893L0.744078 6.58934C0.418641 6.2639 0.418641 5.73626 0.744078 5.41083L5.74408 0.410826C6.06951 0.0853888 6.59715 0.0853888 6.92259 0.410826Z" fill="white"/>
</svg>
