<svg width="19" height="14" viewBox="0 0 19 14" fill="none" xmlns="http://www.w3.org/2000/svg">
  <path fill-rule="evenodd" clip-rule="evenodd" d="M0.5 7C0.5 6.44772 0.947715 6 1.5 6H17.5C18.0523 6 18.5 6.44772 18.5 7C18.5 7.55228 18.0523 8 17.5 8H1.5C0.947715 8 0.5 7.55228 0.5 7Z" fill="white"/>
  <path fill-rule="evenodd" clip-rule="evenodd" d="M10.7929 0.292893C11.1834 -0.0976311 11.8166 -0.0976311 12.2071 0.292893L18.2071 6.29289C18.5976 6.68342 18.5976 7.31658 18.2071 7.70711L12.2071 13.7071C11.8166 14.0976 11.1834 14.0976 10.7929 13.7071C10.4024 13.3166 10.4024 12.6834 10.7929 12.2929L16.0858 7L10.7929 1.70711C10.4024 1.31658 10.4024 0.683417 10.7929 0.292893Z" fill="white"/>
</svg>
